<mxfile host="app.diagrams.net" modified="2023-09-19T11:40:02.354Z" agent="Mozilla/5.0 (Windows NT 10.0; Win64; x64) AppleWebKit/537.36 (KHTML, like Gecko) Chrome/116.0.0.0 Safari/537.36" version="21.7.5" etag="p1D_FcStDWSBTHEB9b4j" type="github">
  <diagram name="第 1 页" id="-dTMm9CFoM0SJ-9MJ6pb">
    <mxGraphModel>
      <root>
        <mxCell id="0" />
        <mxCell id="1" parent="0" />
      </root>
    </mxGraphModel>
  </diagram>
</mxfile>
